HIERARCHY
ROOT Hips
{
   OFFSET 0.00000 0.00000 0.00000
   CHANNELS 6 Xposition Yposition Zposition Zrotation Xrotation Yrotation
   JOINT Spine
   {
      OFFSET 0.000000 14.268601 0.000000
      CHANNELS 3 Zrotation Xrotation Yrotation
      JOINT Spine1
      {
         OFFSET -0.000000 30.788881 0.153192
         CHANNELS 3 Zrotation Xrotation Yrotation
         JOINT HEad
         {
            OFFSET 0.000000 10.480993 0.013608
            CHANNELS 3 Zrotation Xrotation Yrotation
            End Site
            {
               OFFSET -0.348000 15.329041 3.016740
            }
         }
         JOINT LeftShoulder1
         {
            OFFSET 10.788001 -0.434700 -0.264000
            CHANNELS 3 Zrotation Xrotation Yrotation
            JOINT LeftArm
            {
               OFFSET 12.339240 -0.004056 0.386544
               CHANNELS 3 Zrotation Xrotation Yrotation
               JOINT LeftForeArm
               {
                  OFFSET 39.320280 0.118968 -1.709208
                  CHANNELS 3 Zrotation Xrotation Yrotation
                  JOINT LeftHand
                  {
                     OFFSET 33.077163 0.102432 1.226592
                     CHANNELS 3 Zrotation Xrotation Yrotation
                     End Site
                     {
                        OFFSET 20.093162 -0.720000 1.803492
                     }
                  }
               }
            }
         }
         JOINT RightShoulder
         {
            OFFSET -10.788001 -0.434700 -0.264000
            CHANNELS 3 Zrotation Xrotation Yrotation
            JOINT RightArm
            {
               OFFSET -12.339240 -0.004056 0.386544
               CHANNELS 3 Zrotation Xrotation Yrotation
               JOINT RightForeArm
               {
                  OFFSET -39.476518 0.118968 -1.709208
                  CHANNELS 3 Zrotation Xrotation Yrotation
                  JOINT RightHand
                  {
                     OFFSET -32.990522 0.102432 1.226592
                     CHANNELS 3 Zrotation Xrotation Yrotation
                     End Site
                     {
                        OFFSET -19.957442 -0.720000 1.803492
                     }
                  }
               }
            }
         }
      }
   }
   JOINT LeftUpLeg
   {
      OFFSET 10.734961 -10.400485 0.121980
      CHANNELS 3 Zrotation Xrotation Yrotation
      JOINT LeftLeg
      {
         OFFSET 0.000000 -53.307237 1.647240
         CHANNELS 3 Zrotation Xrotation Yrotation
         JOINT LeftFoot
         {
            OFFSET -0.304260 -50.510883 -1.752708
            CHANNELS 3 Zrotation Xrotation Yrotation
            JOINT LeftToes
            {
               OFFSET -0.048000 -5.298108 10.198920
               CHANNELS 3 Zrotation Xrotation Yrotation
               End Site
               {
                  OFFSET 0.096000 -0.056940 11.735748
               }
            }
         }
      }
   }
   JOINT RightUpLeg
   {
      OFFSET -10.734961 -10.400485 0.121980
      CHANNELS 3 Zrotation Xrotation Yrotation
      JOINT RightLeg
      {
         OFFSET 0.000000 -53.307237 1.647240
         CHANNELS 3 Zrotation Xrotation Yrotation
         JOINT RightFoot
         {
            OFFSET 0.304260 -50.510883 -1.752708
            CHANNELS 3 Zrotation Xrotation Yrotation
            JOINT RightToes
            {
               OFFSET 0.048000 -5.298108 10.198920
               CHANNELS 3 Zrotation Xrotation Yrotation
               End Site
               {
                  OFFSET -0.096000 -0.164940 11.735748
               }
            }
         }
      }
   }
}
MOTION
Frames: 16
Frame Time: 0.016670
92.648371 74.788269 -104.620798 4.751143 21.918034 -59.389137 54.659839 -11.172177 142.975517 32.440796 10.339631 -84.443917 -12.724484 54.168407 -11.484577 -68.751291 -60.861459 -29.487685 -51.693512 170.584166 14.075323 71.351400 -21.457154 21.575434 -120.410771 -41.757280 -182.983350 298.109289 305.845762 257.011385 267.385568 54.628003 559.777442 37.334907 310.533622 96.127638 -6.905343 10.248786 42.130253 40.159935 -54.566009 90.263470 387.186567 51.865584 -269.505358 -34.989153 23.754589 -30.061134 -57.670402 -6.422242 -61.654280 -14.629963 -51.975448 68.396756 -327.166362 24.441905 433.545875 -29.852793 33.060137 -33.321406 46.255704 -52.189991 -67.834085
94.900578 78.979138 -102.857455 4.055403 30.333444 -59.676927 60.841249 -14.302177 144.197697 28.837615 14.485182 -82.235744 -11.511487 59.766573 -12.085323 -61.203508 -72.160470 -14.544516 -56.816102 188.172367 17.731823 69.248549 -21.480656 32.102985 -121.106330 -43.643205 -177.206307 293.361570 309.726293 257.342021 267.064741 53.918364 567.822422 41.675840 311.799638 98.720358 -4.213402 11.516106 41.730362 43.496981 -52.900344 90.920910 387.080726 47.088482 -284.870306 -46.746453 37.173581 -28.607469 -37.642515 9.517615 -70.663908 -5.483231 -49.521726 60.230329 -328.772003 23.433283 438.850528 -26.937218 37.528065 -31.412586 33.784069 -62.454478 -60.168332
97.106493 83.421601 -101.495131 3.444638 36.655962 -59.598837 65.922800 -18.012238 145.085949 26.800860 17.292302 -81.509968 -10.795729 60.549880 -12.952957 -50.864924 -79.521618 1.528561 -57.667431 207.535475 19.260783 68.931307 -22.307637 41.729802 -123.723262 -46.319922 -178.186658 290.657935 317.355615 251.524175 268.194454 49.315554 575.637087 43.497722 309.754652 101.146434 -2.554538 14.512240 41.199875 48.612027 -52.074284 88.085378 387.725496 42.453259 -298.658737 -48.908966 48.006804 -27.529398 -28.511279 -3.474978 -63.313354 5.284532 -46.786960 53.719663 -326.070417 28.645719 447.342365 -26.057541 36.622467 -29.173876 39.800475 -57.824825 -58.882781
99.075564 87.532967 -100.565117 3.736592 40.594765 -59.103177 68.267672 -22.938362 145.624455 29.135733 18.180447 -81.957619 -11.047265 58.560375 -13.882832 -36.070663 -85.951708 15.325683 -52.653122 224.220275 22.757977 69.542083 -24.429189 51.465796 -123.680628 -48.842847 -178.361757 287.819609 324.598347 240.238981 271.635667 40.664884 582.151503 43.348574 306.591510 103.158178 -2.739819 13.317379 39.961036 50.823608 -51.000469 85.372911 386.760309 36.814757 -307.895202 -50.585832 57.478665 -23.574295 -11.972014 2.909062 -72.505388 13.406058 -42.392877 46.885950 -324.628455 32.501093 451.554926 -37.796129 36.615500 -27.266245 58.885028 -58.565273 -51.338704
100.815524 91.312646 -100.071076 7.291179 40.543801 -61.179343 66.037773 -26.756636 147.404717 33.202485 15.329140 -84.085680 -11.872827 53.869039 -14.964338 -23.592457 -93.746252 30.824367 -48.253111 236.123082 23.928997 71.840613 -26.093063 59.954649 -125.051174 -51.830505 -182.565315 285.031171 329.544825 225.786014 276.753118 30.248609 587.978583 42.031444 301.039276 104.273957 -3.382902 13.039846 39.413736 50.121369 -51.507928 83.514622 384.787750 32.451769 -314.654439 -52.861187 64.083389 -19.236782 -9.236934 -5.891922 -64.618384 17.341191 -39.264244 39.165189 -326.408866 34.620221 449.872459 -27.336966 38.918647 -26.538635 37.576750 -60.376946 -54.288761
102.535084 94.600972 -100.031994 11.902985 36.978477 -63.171224 62.369107 -33.236674 150.619495 36.996836 8.010896 -86.581506 -14.011988 48.621712 -15.765456 -12.864977 -100.012206 45.729243 -42.859113 244.378868 24.803419 74.341951 -26.861963 66.623605 -125.660823 -54.560145 -185.250508 281.815736 331.342421 207.942309 281.861881 15.533715 589.072014 38.923220 293.708981 103.044209 -5.842814 9.955669 39.256386 46.187990 -51.039275 83.499575 383.419445 29.197119 -317.592376 -57.692880 67.649581 -15.290828 13.318934 -9.028441 -71.138879 19.060912 -35.051592 34.911204 -329.543623 37.395583 447.392062 -41.636075 42.396938 -25.414400 46.893586 -70.589267 -45.242268
104.150256 97.279566 -100.475014 14.513790 34.090246 -65.654285 57.673680 -37.129082 154.534737 41.633148 2.712990 -91.138349 -17.409555 43.440795 -16.069944 -2.161103 -106.532510 57.395965 -34.042018 247.624820 28.491321 76.435254 -28.063579 71.758295 -127.463597 -56.805703 -189.447277 273.193934 327.654611 195.418788 287.446599 0.584138 589.354238 35.290764 280.930790 101.463587 -9.480052 5.501616 40.790743 42.775678 -50.916373 80.537827 383.046106 25.882659 -319.705473 -61.091083 71.103410 -10.162467 11.372870 -12.868855 -62.238173 20.313044 -30.563129 32.173924 -331.394194 37.302617 442.574484 -43.139840 45.878476 -24.153113 44.065771 -76.201955 -49.345255
105.701426 99.359806 -101.300963 17.280833 32.026716 -67.414732 53.110117 -38.292076 156.466315 46.365455 -4.179642 -94.418315 -20.678930 37.708235 -16.313815 7.287517 -113.128205 68.056367 -20.789395 247.349673 34.991920 77.388570 -28.127561 75.222929 -129.209817 -57.658176 -190.886589 263.726636 320.047501 186.998927 293.276193 -13.496678 588.035738 31.613817 266.140151 98.550190 -13.442160 1.610021 39.849369 41.587673 -52.508749 78.169555 383.659020 23.586424 -318.744547 -67.661322 71.871772 -6.632104 29.629521 -16.024361 -75.693625 21.196217 -27.334846 30.915748 -334.931877 34.838425 437.871406 -48.979898 50.804525 -20.840183 45.369180 -80.450510 -53.297318
107.504767 100.677899 -102.398108 20.321628 33.343430 -71.239426 47.243097 -34.367736 154.861794 55.404681 -0.291247 -104.487728 -23.617163 30.291988 -16.666357 18.500245 -120.692024 71.394267 -13.263379 234.521594 44.178391 79.722187 -24.917917 73.179719 -131.361845 -56.689252 -192.496396 242.866610 317.008177 180.972392 294.816783 -20.026202 583.366129 30.668871 249.065088 109.513177 -17.208566 -1.590186 40.928843 44.043409 -54.441621 73.205592 382.773063 22.305041 -318.243266 -62.653195 72.341170 -5.512410 20.171516 -16.284394 -65.613686 22.460442 -26.573406 28.962037 -335.676941 31.544696 437.442197 -51.871704 54.333024 -17.070506 62.225783 -73.137167 -59.459918
109.243029 101.532687 -103.474024 21.017360 32.955448 -75.586801 43.037012 -32.530675 151.565326 67.657552 -3.484732 -107.004537 -26.097904 24.206988 -16.739767 29.969893 -126.322382 74.681432 -3.043323 220.026676 50.606316 79.989452 -22.487107 71.092017 -132.751256 -55.369099 -195.022227 217.311635 314.060977 166.561813 290.891937 -28.141020 577.423209 27.672798 238.641673 103.650183 -19.346410 0.734841 36.004734 44.960748 -52.960382 66.945901 381.707389 21.040031 -318.498742 -59.104373 70.630795 -6.973846 12.795429 -18.671970 -61.452196 23.977695 -23.662723 27.689858 -337.953471 29.287800 437.582080 -54.398219 56.196788 -14.055043 66.986957 -69.391566 -65.640754
110.978077 101.931227 -104.401596 21.020995 31.468382 -77.609288 39.146078 -34.187484 150.143336 76.061055 -7.877721 -108.240289 -27.995383 20.575774 -16.500407 38.206227 -130.781484 76.757249 5.082348 210.363857 54.048653 79.672770 -22.039847 71.363230 -134.317979 -54.499763 -196.483273 187.537501 314.207881 143.870531 278.262344 -39.953355 567.910668 19.451088 233.876824 89.299826 -21.588066 1.038754 38.690819 43.995062 -53.007387 60.294280 381.117753 21.254089 -319.643100 -56.006889 68.393437 -9.337947 7.618304 -22.896710 -60.884108 23.120206 -19.048067 28.794752 -343.173183 24.858325 439.254520 -55.262811 55.655913 -9.931926 64.918346 -65.786374 -68.215920
112.710856 102.016343 -105.150727 22.503870 31.805404 -79.718601 40.602705 -38.037774 151.490754 78.780092 -10.600229 -110.932108 -29.643499 18.507888 -15.697726 42.847781 -132.482078 78.799571 10.659827 201.897291 56.272955 81.070220 -22.992275 71.877359 -135.810197 -54.217232 -196.609618 160.591503 316.661312 121.834182 263.487224 -46.367330 558.646964 17.261003 225.151845 84.909941 -22.840752 0.301103 40.319652 44.045383 -53.929060 54.411479 380.266083 19.570263 -320.077527 -53.889732 65.504137 -11.655167 4.173378 -29.503969 -60.952909 23.707373 -15.902422 27.486414 -347.948469 17.694105 439.098682 -56.172920 54.271959 -8.110175 59.766525 -63.608527 -69.407549
114.308251 101.365469 -105.761221 24.521004 31.050498 -84.402635 43.376674 -41.015395 154.942254 79.785823 -12.842066 -112.999872 -30.189327 18.803784 -14.627612 45.476909 -133.187664 81.796699 15.463956 197.440620 58.719218 82.635365 -25.692264 71.238129 -136.436731 -55.420408 -196.210175 136.945990 320.426331 101.448943 245.529537 -47.970591 545.507866 16.629265 215.504831 82.919863 -23.026644 2.672389 35.782337 45.272601 -52.319573 49.582864 379.038780 17.505158 -318.772223 -51.957539 62.484749 -13.586112 3.714776 -28.658606 -56.479244 23.182938 -12.432337 21.936402 -347.191739 6.972916 434.822328 -55.852817 53.497207 -9.264995 50.570372 -62.283532 -74.050035
115.869272 100.738066 -106.202763 27.258293 30.182012 -87.136883 39.106368 -42.384578 157.348065 75.680969 -16.279723 -115.739277 -29.901711 21.753545 -13.288502 48.840804 -130.019344 84.097469 16.022246 200.148708 59.624601 81.316264 -28.011485 73.571547 -135.187270 -58.688394 -197.542636 113.169411 326.086837 84.934939 224.715396 -47.249558 526.853417 11.803128 199.970536 72.298652 -23.248463 6.469779 23.036025 44.797804 -52.628824 44.215663 377.822706 14.864016 -317.185843 -49.879990 60.157035 -15.455852 1.773145 -27.623672 -50.952330 21.585618 -9.305131 19.729729 -348.391639 -5.200649 432.094651 -52.872132 51.090133 -7.792992 44.336179 -59.595771 -73.711279
117.447308 99.997319 -106.646851 27.058257 26.219030 -89.588128 35.826432 -44.228572 159.764067 73.830520 -16.971166 -116.206748 -30.709767 25.041548 -11.436952 51.127309 -128.674699 86.164366 12.641131 202.669881 59.041091 80.927968 -31.212055 71.640686 -133.824771 -61.152985 -197.285055 95.292641 332.999152 71.182934 202.987403 -45.474614 509.239234 10.583220 186.124185 69.294687 -20.908099 11.156064 12.627167 41.870999 -49.842271 38.935032 375.357636 13.135651 -315.682819 -47.838512 58.860146 -17.509883 -1.280301 -26.735174 -45.131769 18.344671 -4.566011 19.685613 -352.067538 -16.017287 429.741050 -48.836515 48.433838 -4.726807 40.293584 -56.792408 -70.435848
118.953102 99.186676 -107.012461 25.940828 25.054027 -91.315920 32.273856 -41.922875 161.859050 65.792084 -18.793021 -115.756475 -33.069993 26.772892 -7.665655 51.321604 -126.210011 91.710835 6.716890 207.003267 55.392124 77.725531 -31.762401 70.271247 -133.846709 -64.116372 -192.417303 83.075734 339.786557 59.207256 176.900410 -44.281499 490.489763 6.995819 169.163159 63.452662 -18.102807 4.960771 20.023159 42.519591 -46.547155 34.212011 372.844345 12.226001 -313.140295 -45.206662 58.837845 -19.731947 -5.522043 -26.194199 -39.948318 16.888893 -1.262419 20.421344 -352.246106 -24.069064 424.356457 -47.686680 46.693929 -2.088998 43.038327 -52.030298 -63.460667
